<?xml version="1.0" standalone="no"?><!DOCTYPE svg PUBLIC "-//W3C//DTD SVG 1.1//EN" "http://www.w3.org/Graphics/SVG/1.1/DTD/svg11.dtd"><svg class="icon" width="200px" height="200.00px" viewBox="0 0 1024 1024" version="1.1" xmlns="http://www.w3.org/2000/svg"><path fill="#333333" d="M480.1 561.8H193.3c-17.5 0-31.9 15.1-31.9 33.5v66.1h31.9c35.1 0 63.8 29.5 63.8 66.1v132.3c0 36.7-28.7 66.1-63.8 66.1H65.8C30.7 926 2 896.5 2 859.8V727.6c0-36.7 28.7-66.1 63.8-66.1h31.9v-66.1c0-55 43-99.6 95.6-99.6h286.9v-66.1h-95.6c-52.6 0-95.6-44.6-95.6-99.6V197.6c0-55 43-99.6 95.6-99.6h255c52.6 0 95.6 44.6 95.6 99.6v132.3c0 55-43 99.6-95.6 99.6H544v66.1h286.9c52.6 0 95.6 44.6 95.6 99.6v66.1h31.9c35.1 0 63.8 29.5 63.8 66.1v132.3c0 36.7-28.7 66.1-63.8 66.1H830.8c-35.1 0-63.8-29.5-63.8-66.1V727.6c0-36.7 28.7-66.1 63.8-66.1h31.9v-66.1c0-18.3-14.3-33.5-31.9-33.5H543.9v99.6h31.9c35.1 0 63.8 29.5 63.8 66.1v132.3c0 36.7-28.7 66.1-63.8 66.1H448.3c-35.1 0-63.8-29.5-63.8-66.1V727.6c0-36.7 28.7-66.1 63.8-66.1h31.9v-99.7z m-95.6-397.6c-17.5 0-31.9 15.1-31.9 33.5V330c0 18.3 14.3 33.5 31.9 33.5h255c17.5 0 31.9-15.1 31.9-33.5V197.6c0-18.3-14.3-33.5-31.9-33.5h-255zM65.8 727.6v132.3h127.5V727.6H65.8z m382.5 0v132.3h127.5V727.6H448.3z m382.5 0v132.3h127.5V727.6H830.8z" /></svg>